<?xml version="1.0" encoding="utf-8"?>
<!-- Generator: Adobe Illustrator 19.2.1, SVG Export Plug-In . SVG Version: 6.00 Build 0)  -->
<svg version="1.1" id="konstruktion" xmlns="http://www.w3.org/2000/svg" xmlns:xlink="http://www.w3.org/1999/xlink" x="0px"
	 y="0px" viewBox="0 0 841.9 595.3" style="enable-background:new 0 0 841.9 595.3;" xml:space="preserve">
<style type="text/css">
	.st0{fill:#A8A7AA;}
	.st1{fill:#BD2F18;}
	.st2{fill:#00824D;}
	.st3{fill:#0060A3;}
	.st4{fill:#666567;}
</style>
<g>
	<path class="st0" d="M195.5,562.1c0,4.6-0.8,8.3-2.5,11c-1.7,2.8-3.6,5-5.9,6.7c-3.2,2.5-7.7,3.8-13.4,3.8h-24.1v-44.7h18.6
		c2.8,0,5.2,0.1,7.2,0.4c2,0.3,3.8,0.7,5.4,1.2c1.6,0.5,2.9,1.1,4.1,1.8c1.1,0.7,2.1,1.4,3,2.1c1.5,1.2,2.9,2.7,4,4.4
		c1.1,1.7,2.1,3.7,2.7,5.9C195.2,557,195.5,559.4,195.5,562.1z M181.8,561.5c0-3.6-0.7-6.5-2.1-8.5c-1.4-2-3.1-3.4-5-4.1
		c-1.9-0.7-3.9-1-6-1h-5.7v26.5h5.7c3.5,0,6.6-0.8,9.2-2.5C180.6,570.2,181.8,566.7,181.8,561.5z"/>
	<path class="st0" d="M237.6,583.6h-33.7v-44.7H237v9h-19.7v8.2h18.8v9h-18.8v9.5h20.2V583.6z"/>
	<path class="st0" d="M293.2,563.6c0,3.8-0.7,7.1-2.1,9.8c-1.4,2.7-3.3,4.8-5.7,6.4c-2.4,1.6-4.9,2.7-7.6,3.4c-2.7,0.7-5.4,1-8.1,1
		c-3.8,0-7.5-0.6-11-1.9c-3.6-1.3-6.6-3.5-9-6.6c-2.4-3.1-3.6-7.1-3.6-12.1v-24.7h13.4v21.2c0,2.9,0.4,5.4,1.3,7.3
		c0.8,1.9,2,3.3,3.5,4.2c1.5,0.9,3.3,1.3,5.4,1.3c2,0,3.7-0.4,5.3-1.3c1.5-0.9,2.7-2.3,3.6-4.2c0.8-1.9,1.3-4.3,1.3-7.3v-21.3h13.5
		V563.6z"/>
	<path class="st0" d="M346.6,549.8h-16.4v33.8h-13.4v-33.8h-16.4v-10.9h46.2V549.8z"/>
	<path class="st0" d="M385.7,570.6c0,2.8-0.7,5.2-2.1,7.3c-1.4,2-3.4,3.6-6,4.7c-2.6,1.1-5.5,1.6-8.8,1.6c-0.9,0-2.1-0.1-3.4-0.2
		c-1.3-0.1-3.1-0.4-5.4-1c-2.2-0.5-4.5-1.3-6.9-2.4v-11c2.3,1.4,4.5,2.6,6.7,3.5c2.2,0.9,4.5,1.4,7,1.4c2.3,0,3.8-0.4,4.5-1.1
		c0.7-0.8,1-1.5,1-2.1c0-1.2-0.6-2.2-1.7-3c-1.2-0.8-2.8-1.7-5.1-2.6c-2.4-1-4.6-2.2-6.4-3.4c-1.8-1.2-3.4-2.7-4.5-4.6
		c-1.2-1.8-1.8-4-1.8-6.5c0-2.4,0.6-4.6,1.8-6.5c1.2-1.9,3-3.5,5.4-4.7c2.4-1.2,5.4-1.7,8.9-1.7c2.5,0,4.8,0.2,6.9,0.7
		c2.1,0.5,3.9,1,5.2,1.6c1.4,0.6,2.3,1.1,2.8,1.4v10.5c-1.8-1.3-3.9-2.5-6.1-3.5c-2.2-1-4.6-1.5-7.2-1.5c-1.7,0-2.9,0.3-3.6,1
		c-0.8,0.6-1.1,1.4-1.1,2.4c0,0.9,0.4,1.6,1.1,2.3c0.8,0.6,2.1,1.4,4,2.4c3.4,1.6,6.2,3.1,8.3,4.4c2.1,1.3,3.7,2.8,4.9,4.5
		C385.1,566,385.7,568.1,385.7,570.6z"/>
	<path class="st0" d="M434.9,580.3c-1.8,1-3.7,1.7-5.7,2.3c-1.9,0.6-3.9,1-5.9,1.2c-2,0.2-4,0.4-6.1,0.4c-3.9,0-7.4-0.5-10.5-1.6
		c-3.1-1.1-5.8-2.7-8-4.8c-2.3-2.1-4-4.5-5.1-7.4c-1.1-2.8-1.7-5.9-1.7-9.2c0-3.8,0.7-7.2,2-10.1c1.3-2.9,3.2-5.3,5.6-7.2
		c2.4-1.9,5.1-3.3,8.2-4.2c3.1-0.9,6.3-1.4,9.7-1.4c5.1,0,10.8,1.1,17.3,3.4v11.9c-2.2-1.4-4.4-2.5-6.6-3.4
		c-2.2-0.9-4.7-1.4-7.6-1.4c-2.6,0-5,0.5-7.3,1.5c-2.3,1-4.1,2.5-5.4,4.4c-1.4,1.9-2.1,4.1-2.1,6.7c0,2.3,0.6,4.3,1.8,6.2
		c1.2,1.9,2.9,3.4,5,4.5c2.1,1.1,4.6,1.7,7.2,1.7c2.2,0,4.2-0.3,6.2-0.8c1.9-0.5,3.6-1.1,4.9-1.8c1.3-0.6,2.7-1.4,4.1-2.3V580.3z"/>
	<path class="st0" d="M491.2,583.6h-13.4v-17.4h-20.3v17.4h-13.5v-44.7h13.5v16.4h20.3v-16.4h13.4V583.6z"/>
	<path class="st0" d="M536.3,583.6h-34v-44.7h13.5v34h20.5V583.6z"/>
	<path class="st0" d="M592.3,583.6h-13.8l-3.6-9.1h-19.4l-3.7,9.1h-13.8l19.8-44.7h14.9L592.3,583.6z M571.8,566.8l-6.5-16.3
		l-6.6,16.3H571.8z"/>
	<path class="st0" d="M646.8,583.6h-12l-23.2-24.9v24.9h-13.4v-44.7h12l23.1,24.8v-24.8h13.4V583.6z"/>
	<path class="st0" d="M704,562.1c0,4.6-0.8,8.3-2.5,11c-1.7,2.8-3.6,5-5.9,6.7c-3.2,2.5-7.7,3.8-13.4,3.8H658v-44.7h18.6
		c2.8,0,5.2,0.1,7.2,0.4c2,0.3,3.8,0.7,5.4,1.2c1.6,0.5,2.9,1.1,4.1,1.8c1.1,0.7,2.1,1.4,3,2.1c1.5,1.2,2.9,2.7,4,4.4
		c1.1,1.7,2.1,3.7,2.7,5.9C703.6,557,704,559.4,704,562.1z M690.3,561.5c0-3.6-0.7-6.5-2.1-8.5c-1.4-2-3-3.4-5-4.1
		c-1.9-0.7-3.9-1-6-1h-5.7v26.5h5.7c3.5,0,6.6-0.8,9.2-2.5C689,570.2,690.3,566.7,690.3,561.5z"/>
</g>
<circle class="st1" cx="424.9" cy="75" r="62.1"/>
<g>
	<path class="st2" d="M412.7,173.6l-60.3-60.2c-24.2,20.5-39.5,51.1-39.5,85.3c0,57.7,43.7,105.2,99.8,111.3V173.6z"/>
	<path class="st2" d="M497.4,113.5l-60.1,60.1v136.4c56-6.2,99.5-53.6,99.5-111.2C536.8,164.5,521.5,134,497.4,113.5z"/>
</g>
<g>
	<path class="st3" d="M549.7,61.2l-35.6,35.6c28.3,24.8,46.2,61.3,46.2,102c0,74.9-60.7,135.5-135.5,135.5
		c-74.9,0-135.5-60.7-135.5-135.5c0-40.7,17.9-77.2,46.3-102.1l-35.5-35.5c-37.4,34-61,83-61,137.6c0,102.6,83.2,185.7,185.7,185.7
		c102.6,0,185.7-83.2,185.7-185.7C610.6,144.2,587.1,95.1,549.7,61.2z"/>
</g>
<g>
	<path class="st4" d="M203.4,434.5l-32.3,75.7h-13l-19.4-44l-19.9,44h-13.2l-31.7-75.7h23.3l15.5,41.4l17.8-41.4h16.1l17.5,41.4
		l16.2-41.4H203.4z"/>
	<path class="st4" d="M236.4,509.2h-22.5v-74.7h22.5V509.2z"/>
	<path class="st4" d="M333.9,509.2h-27.5l-28.6-35v35h-22.5v-74.7h22.5v33.4l27.1-33.4h24.5l-27.8,35L333.9,509.2z"/>
	<path class="st4" d="M366.3,509.2h-22.5v-74.7h22.5V509.2z"/>
	<path class="st4" d="M472.1,509.2h-22.5v-43.3L429.2,491h-1.8l-20.4-25.1v43.3h-21.9v-74.7h20.4l23,28l23.1-28h20.4V509.2z"/>
	<path class="st4" d="M547.2,509.2h-56.3v-74.7h55.4v15h-32.9v13.7h31.4v15h-31.4v16h33.8V509.2z"/>
	<path class="st4" d="M639.1,473.2c0,7.7-1.4,13.8-4.2,18.4c-2.8,4.6-6.1,8.4-9.8,11.3c-5.4,4.2-12.8,6.3-22.5,6.3h-40.3v-74.7h31
		c4.7,0,8.7,0.2,12,0.7c3.3,0.5,6.3,1.2,9,2c2.7,0.9,4.9,1.9,6.8,3c1.9,1.1,3.5,2.3,5,3.5c2.5,2.1,4.8,4.5,6.7,7.4
		c1.9,2.8,3.5,6.1,4.6,9.9C638.6,464.8,639.1,468.8,639.1,473.2z M616.2,472.2c0-6.1-1.2-10.8-3.5-14.2c-2.3-3.4-5.1-5.7-8.4-6.8
		c-3.3-1.1-6.6-1.7-9.9-1.7h-9.6v44.2h9.6c5.9,0,11-1.4,15.3-4.2C614.1,486.7,616.2,481,616.2,472.2z"/>
	<path class="st4" d="M675.7,509.2h-22.5v-74.7h22.5V509.2z"/>
	<path class="st4" d="M776.6,509.2h-23.1l-6.1-15.1H715l-6.2,15.1h-23.1l33-74.7h24.9L776.6,509.2z M742.2,481.1l-10.9-27.3
		l-11,27.3H742.2z"/>
</g>
</svg>
